#!OML:ASF F:\VICON\USERDATA\INSTALL\rory3\rory3.ASF
:FULLY-SPECIFIED
:DEGREES
341
root -1.41767 21.1307 -2.15335 166.299 -54.6337 -174.905
lowerback 16.6796 -2.93363 -0.986905
upperback -2.66792 -3.9301 1.93967
thorax -12.1427 -1.69729 3.75581
lowerneck 0.570544 -15.1921 -8.26763
upperneck 1.21392 -20.3346 3.65806
head 1.55984 -10.1837 2.02573
rclavicle -8.53283e-014 3.93594e-014
rhumerus 71.7349 -28.8148 -76.9648
rradius 15.4578
rwrist 65.9694
rhand 31.4937 -3.74001
rfingers 7.12502
rthumb 55.0446 -21.8464
lclavicle -8.53283e-014 3.93594e-014
lhumerus 73.517 -37.0342 68.2922
lradius 67.2791
lwrist 62.0466
lhand -20.8688 60.9006
lfingers 7.12502
lthumb 5.50098 -90.8092
rfemur -1.03852 2.86937 25.6288
rtibia 29.6149
rfoot 12.7217 -15.6936
rtoes -2.32489
lfemur -7.09621 -5.20986 -16.16
ltibia 34.4854
lfoot 13.8405 5.8455
ltoes -10.9195
342
root -1.38724 21.2349 -2.15944 165.897 -55.4249 -174.596
lowerback 16.9617 -2.85714 -0.998015
upperback -2.45168 -3.81649 2.11308
thorax -12.0562 -1.64191 3.93306
lowerneck 0.53861 -15.4925 -8.27721
upperneck 0.39468 -20.7146 3.78083
head 1.33495 -10.361 2.07967
rclavicle -1.97343e-013 -1.39149e-014
rhumerus 68.9036 -28.4725 -71.7371
rradius 16.595
rwrist 63.1104
rhand 38.2511 -2.99395
rfingers 7.12502
rthumb 60.9303 -15.7591
lclavicle -1.97343e-013 -1.39149e-014
lhumerus 74.6787 -37.0026 67.7184
lradius 67.2726
lwrist 61.8695
lhand -20.6258 60.5696
lfingers 7.12502
lthumb 5.73566 -90.472
rfemur -0.665082 2.62689 25.8353
rtibia 29.2375
rfoot 11.6761 -15.623
rtoes -3.61887
lfemur -7.38807 -4.55085 -15.9858
ltibia 35.3554
lfoot 12.9451 5.55342
ltoes -9.54143
343
root -1.35421 21.3209 -2.16401 165.339 -56.1644 -173.999
lowerback 17.221 -2.98392 -0.83548
upperback -2.39374 -3.94838 2.16177
thorax -12.1408 -1.71135 3.94633
lowerneck 1.21131 -15.7091 -7.70678
upperneck -0.77056 -21.0372 3.83503
head 0.80739 -10.5148 2.12501
rclavicle -7.16619e-014 3.00165e-014
rhumerus 65.8203 -27.4779 -66.9632
rradius 17.7615
rwrist 61.8053
rhand 42.3354 0.292195
rfingers 7.12502
rthumb 64.3005 -8.0078
lclavicle -7.16619e-014 3.00165e-014
lhumerus 75.3617 -36.7927 66.8687
lradius 67.4537
lwrist 61.7376
lhand -20.6255 60.464
lfingers 7.12502
lthumb 5.73592 -90.3663
rfemur -0.648637 2.90243 26.2609
rtibia 29.2949
rfoot 10.5181 -15.9092
rtoes -3.01114
lfemur -7.66287 -3.79038 -15.6545
ltibia 35.9435
lfoot 12.7225 4.72329
ltoes -9.76862
344
root -1.32145 21.3958 -2.17698 165.297 -56.8889 -173.912
lowerback 17.3307 -3.33137 -1.26346
upperback -2.55573 -4.51503 2.03728
thorax -12.3295 -1.94176 4.21879
lowerneck 2.91067 -15.6995 -6.17387
upperneck -2.43812 -21.095 3.43906
head -0.208418 -10.5404 2.06561
rclavicle -9.69075e-016 2.94201e-014
rhumerus 63.0476 -25.6481 -63.5579
rradius 18.5308
rwrist 60.7276
rhand 42.5762 4.49842
rfingers 7.12502
rthumb 64.4932 -3.50017
lclavicle -9.69075e-016 2.94201e-014
lhumerus 75.3069 -36.1615 65.5782
lradius 67.5418
lwrist 61.5779
lhand -20.6804 60.5166
lfingers 7.12502
lthumb 5.68292 -90.4204
rfemur -1.01768 3.86059 26.3655
rtibia 29.7558
rfoot 8.37653 -17.1098
rtoes 7.33777
lfemur -7.79633 -3.6123 -15.6674
ltibia 36.1929
lfoot 12.9083 4.65838
ltoes -8.37462
345
root -1.30337 21.4852 -2.16816 166.893 -57.9857 -175.396
lowerback 17.0325 -3.38906 -2.12175
upperback -2.60615 -4.78214 1.92821
thorax -12.1316 -2.01637 4.62814
lowerneck 3.55791 -15.9503 -6.53846
upperneck -3.33097 -21.4742 3.76064
head -0.505162 -10.7247 2.31134
rclavicle 5.1858e-014 1.47101e-014
rhumerus 60.547 -23.7564 -58.4119
rradius 19.5765
rwrist 54.7011
rhand 41.0447 4.27248
rfingers 7.12502
rthumb 63.2553 -5.56539
lclavicle 5.1858e-014 1.47101e-014
lhumerus 76.0787 -35.6328 64.7121
lradius 67.7138
lwrist 61.3887
lhand -20.6109 60.38
lfingers 7.12502
lthumb 5.75007 -90.282
rfemur -1.4787 2.94173 25.3246
rtibia 30.0411
rfoot 9.02056 -15.785
rtoes 11.0993
lfemur -8.22485 -3.85228 -16.8159
ltibia 36.4735
lfoot 13.2686 5.07944
ltoes -6.1997
346
root -1.29404 21.5589 -2.12386 171.277 -59.489 -179.608
lowerback 16.4512 -3.50768 -3.77332
upperback -2.85153 -5.32829 1.39326
thorax -11.9281 -2.18178 5.06445
lowerneck 2.9644 -15.7107 -8.76391
upperneck -2.17902 -21.1904 5.57762
head 0.400728 -10.6044 3.01353
rclavicle -1.18128e-013 -2.18663e-014
rhumerus 58.9215 -22.2425 -54.982
rradius 20.317
rwrist 49.2075
rhand 37.3013 4.20738
rfingers 7.12502
rthumb 60.123 -9.44319
lclavicle -1.18128e-013 -2.18663e-014
lhumerus 76.4458 -35.0345 64.3693
lradius 68.4235
lwrist 60.8367
lhand -20.5525 60.33
lfingers 7.12502
lthumb 5.8064 -90.2304
rfemur -2.43039 1.37861 22.3537
rtibia 30.3365
rfoot 9.48555 -14.1274
rtoes 8.64306
lfemur -9.13424 -3.63325 -19.5468
ltibia 36.6836
lfoot 14.1968 4.96221
ltoes -4.97109
347
root -1.26594 21.613 -2.19392 167.057 -59.4551 -175.286
lowerback 16.568 -3.72483 -2.59409
upperback -2.5053 -5.28447 2.34093
thorax -11.6183 -2.23151 5.42746
lowerneck 2.83244 -15.6614 -9.38728
upperneck -2.19206 -21.1301 5.71545
head 0.499399 -10.5701 3.13011
rclavicle 3.01656e-014 -1.03368e-014
rhumerus 58.3062 -20.911 -53.4302
rradius 20.7075
rwrist 45.0605
rhand 32.3495 3.75608
rfingers 7.12502
rthumb 55.8059 -13.7831
lclavicle 3.01656e-014 -1.03368e-014
lhumerus 76.5552 -34.6809 64.8515
lradius 68.7358
lwrist 59.4416
lhand -20.5191 60.7837
lfingers 7.12502
lthumb 5.83867 -90.6833
rfemur -1.86679 2.41784 25.4583
rtibia 30.4251
rfoot 8.63748 -16.4253
rtoes 15.1789
lfemur -8.79678 -2.01063 -16.577
ltibia 37.1507
lfoot 15.1408 3.60788
ltoes -3.35141
348
root -1.24166 21.6427 -2.22316 164.513 -59.5243 -172.657
lowerback 16.7227 -3.97409 -1.59104
upperback -2.29963 -5.37356 2.86394
thorax -11.5065 -2.33594 5.46585
lowerneck 2.67192 -15.5483 -9.56323
upperneck -2.33037 -20.9655 5.56768
head 0.469812 -10.4809 3.11043
rclavicle -5.15846e-014 -3.18055e-015
rhumerus 57.0513 -19.4399 -51.4242
rradius 22.2428
rwrist 40.7408
rhand 27.7084 2.71984
rfingers 7.12502
rthumb 51.6354 -17.5999
lclavicle -5.15846e-014 -3.18055e-015
lhumerus 76.5466 -33.8121 64.5505
lradius 69.2533
lwrist 58.9018
lhand -20.5262 60.7284
lfingers 7.12502
lthumb 5.83184 -90.6281
rfemur -1.56118 2.9312 27.2851
rtibia 30.3756
rfoot 9.95087 -16.0085
rtoes 11.2486
lfemur -8.6822 -1.49883 -14.94
ltibia 37.5863
lfoot 16.0607 3.36819
ltoes -2.47838
349
root -1.21999 21.6545 -2.23998 162.835 -59.6635 -170.983
lowerback 16.8646 -4.08084 -0.813438
upperback -2.06855 -5.34037 3.15744
thorax -11.3739 -2.37456 5.34319
lowerneck 2.68793 -15.4288 -9.24848
upperneck -2.93491 -20.7903 5.36741
head 0.199324 -10.3852 3.05144
rclavicle -7.72278e-014 -3.33958e-014
rhumerus 56.8345 -19.1153 -51.3062
rradius 22.4115
rwrist 38.8746
rhand 22.3644 2.02071
rfingers 7.12502
rthumb 46.7309 -20.7631
lclavicle -7.72278e-014 -3.33958e-014
lhumerus 77.3039 -32.9832 63.3871
lradius 68.847
lwrist 59.14
lhand -20.5687 59.6767
lfingers 7.12502
lthumb 5.79078 -270.422
rfemur -1.35849 3.4149 28.4234
rtibia 30.3277
rfoot 10.0183 -16.7763
rtoes 13.5081
lfemur -8.53486 -2.17384 -14.2383
ltibia 37.872
lfoot 16.8147 4.13643
ltoes -4.80861
